<?xml version="1.0" encoding="utf-8"?>
<!-- Generator: Adobe Adobe Illustrator 29.2.0, SVG Export Plug-In . SVG Version: 6.00 Build 0)  -->
<svg version="1.1" id="Layer_1" xmlns="http://www.w3.org/2000/svg" xmlns:xlink="http://www.w3.org/1999/xlink" x="0px" y="0px"
	 width="1109.46px" height="294.04px" viewBox="0 0 1109.46 294.04" style="enable-background:new 0 0 1109.46 294.04;"
	 xml:space="preserve">
<style type="text/css">
	.st0{fill:#FFFFFF;stroke:#FFFFFF;stroke-miterlimit:10;}
	.st1{fill:none;stroke:#FFFFFF;stroke-miterlimit:10;}
	.st2{fill:#FFFFFF;}
	.st3{fill:none;stroke:#FFFFFF;stroke-linecap:round;stroke-linejoin:bevel;}
</style>
<g>
	<circle class="st0" cx="955.91" cy="150.38" r="31.37"/>
	<circle class="st0" cx="484.68" cy="38.74" r="31.37"/>
	<circle class="st0" cx="603.78" cy="21.26" r="15.1"/>
	<circle class="st0" cx="628.65" cy="30.88" r="5.49"/>
	<circle class="st0" cx="788.2" cy="279.5" r="5.49"/>
	<circle class="st0" cx="366.42" cy="259.55" r="5.49"/>
	<circle class="st0" cx="204.51" cy="90.1" r="5.49"/>
	<circle class="st0" cx="752.27" cy="274.66" r="15.1"/>
	<circle class="st0" cx="281.52" cy="229.67" r="15.1"/>
</g>
<g>
	<circle class="st1" cx="771.81" cy="150.38" r="129.12"/>
	<circle class="st1" cx="551.73" cy="143.23" r="135.85"/>
	<circle class="st1" cx="350.87" cy="157.12" r="102.44"/>
	<circle class="st1" cx="231.22" cy="143.23" r="58.61"/>
	<line class="st1" x1="-1.98" y1="143.23" x2="1109.46" y2="143.23"/>
	<line class="st1" x1="151.72" y1="170.71" x2="516.05" y2="170.71"/>
	<line class="st1" x1="347.6" y1="95.58" x2="767.37" y2="95.58"/>
	<line class="st1" x1="312.89" y1="143.22" x2="527.08" y2="51.89"/>
	<line class="st1" x1="752.27" y1="143.23" x2="527.08" y2="51.89"/>
	<line class="st1" x1="395.04" y1="146.01" x2="609.22" y2="54.68"/>
	<line class="st1" x1="834.41" y1="146.01" x2="609.22" y2="54.68"/>
	<g>
		<line class="st1" x1="746.77" y1="146.02" x2="532.58" y2="237.35"/>
		<line class="st1" x1="307.39" y1="146.01" x2="532.58" y2="237.35"/>
	</g>
	<g>
		<line class="st1" x1="834.41" y1="143.23" x2="620.23" y2="234.56"/>
		<line class="st1" x1="395.04" y1="143.22" x2="620.23" y2="234.56"/>
	</g>
</g>
<g>
	<g>
		<path class="st2" d="M77.87,88.21V4.76h18.21v83.88c0,34.03,14.3,44.87,32.95,44.87c18.86,0,33.59-10.84,33.59-44.87V4.76h17.56
			v83.45c0,45.52-22.11,61.34-51.15,61.34C99.97,149.54,77.87,133.72,77.87,88.21z"/>
		<g>
			<g>
				<path class="st3" d="M77.87,88.21V4.76h18.21v83.88c0,34.03,14.3,44.87,32.95,44.87c18.86,0,33.59-10.84,33.59-44.87V4.76h17.56
					v83.45c0,45.52-22.11,61.34-51.15,61.34c-28.27,0-49.97-14.99-51.1-57.77"/>
				<g>
					<path class="st2" d="M81.74,91.85c-0.06-2.08-1.8-3.71-3.88-3.64c-2.08,0.06-3.71,1.8-3.64,3.88c0.06,2.08,1.8,3.71,3.88,3.64
						S81.81,93.92,81.74,91.85z"/>
				</g>
			</g>
		</g>
	</g>
</g>
<g>
	<path class="st2" d="M604.44,75.42v66.76h-18.01V77.82c0-19.75-6.07-27.96-19.94-27.96c-10.62,0-18.2,5.4-28.59,16.02v76.3H519.9
		V36.84h14.75l1.52,15.16h0.63c9.98-9.95,20.82-17.76,35.32-17.76C594.46,34.25,604.44,48.53,604.44,75.42z"/>
	<g>
		<path class="st3" d="M604.44,75.42v66.76h-18.01V77.82c0-19.75-6.07-27.96-19.94-27.96c-10.62,0-18.2,5.4-28.59,16.02v76.3H519.9
			V36.84h14.75l1.52,15.16h0.63c9.98-9.95,20.82-17.76,35.32-17.76c21.33,0,31.39,13.02,32.26,37.59"/>
		<g>
			<path class="st2" d="M600.6,71.75c0.05,2.08,1.77,3.72,3.85,3.67c2.08-0.05,3.72-1.77,3.67-3.85c-0.05-2.08-1.77-3.72-3.85-3.67
				C602.19,67.95,600.55,69.67,600.6,71.75z"/>
		</g>
	</g>
</g>
<g>
	<path class="st2" d="M418.58,38.26h18.01V143.6h-14.75l-1.52-16.49h-0.63c-9.76,11.5-20.16,19.08-34.69,19.08
		c-22.34,0-32.29-14.31-32.29-41.17V38.26h17.98v64.36c0,19.52,6.07,27.96,19.94,27.96c10.62,0,18.23-5.4,27.96-17.76V38.26z"/>
	<g>
		<path class="st3" d="M418.58,38.26h18.01V143.6h-14.75l-1.52-16.49h-0.63c-9.76,11.5-20.16,19.08-34.69,19.08
			c-22.34,0-32.29-14.31-32.29-41.17V38.26h17.98v64.36c0,19.52,6.07,27.96,19.94,27.96c10.62,0,18.23-5.4,27.96-17.76V41.84"/>
		<g>
			<path class="st2" d="M422.34,42.02c0-2.08-1.68-3.76-3.76-3.76s-3.76,1.68-3.76,3.76c0,2.08,1.68,3.76,3.76,3.76
				S422.34,44.1,422.34,42.02z"/>
		</g>
	</g>
</g>
<g>
	<polygon class="st2" points="214.39,4.78 318.65,4.78 318.65,20.16 275.52,20.16 275.52,146.95 257.32,146.95 257.32,20.16 
		214.39,20.16 	"/>
	<g>
		<polyline class="st3" points="214.39,4.78 318.65,4.78 318.65,20.16 275.52,20.16 275.52,146.95 257.32,146.95 257.32,20.16 
			214.39,20.16 214.39,8.35 		"/>
		<g>
			<path class="st2" d="M218.15,8.53c0-2.08-1.68-3.76-3.76-3.76s-3.76,1.68-3.76,3.76c0,2.08,1.68,3.76,3.76,3.76
				S218.15,10.61,218.15,8.53z"/>
		</g>
	</g>
</g>
<g>
	<g>
		<path class="st2" d="M652.66,93.08c0-34.24,23.19-55.27,47.25-55.27c26.88,0,42.27,19.07,42.27,49.42c0,3.9-0.22,7.15-0.87,10.62
			h-70.88c1.52,21.67,14.74,35.98,34.68,35.98c10.19,0,19.07-2.82,26.44-7.8l6.29,11.49c-9.1,6.5-20.38,10.84-34.9,10.84
			C674.77,148.35,652.66,127.97,652.66,93.08z M726.14,83.98c0-20.81-9.75-31.86-25.79-31.86c-14.74,0-27.74,11.7-29.91,31.86
			H726.14z"/>
		<g>
			<g>
				<path class="st3" d="M652.66,93.08c0-34.24,23.19-55.27,47.25-55.27c26.88,0,42.27,19.07,42.27,49.42
					c0,3.9-0.22,7.15-0.87,10.62h-70.88c1.52,21.67,14.74,35.98,34.68,35.98c10.19,0,19.07-2.82,26.44-7.8l6.29,11.49
					c-9.1,6.5-20.38,10.84-34.9,10.84c-27.2,0-48.75-18.99-50.21-51.7"/>
				<g>
					<path class="st2" d="M656.57,96.68c-0.08-2.07-1.83-3.69-3.91-3.61c-2.07,0.08-3.69,1.83-3.61,3.91
						c0.08,2.07,1.83,3.69,3.91,3.61C655.04,100.51,656.65,98.76,656.57,96.68z"/>
				</g>
			</g>
			<g>
				<path class="st3" d="M726.14,83.98c0-20.81-9.75-31.86-25.79-31.86c-14.74,0-27.74,11.7-29.91,31.86h52.13"/>
				<g>
					<circle class="st2" cx="722.38" cy="83.98" r="3.76"/>
				</g>
			</g>
		</g>
	</g>
</g>
<g>
	<g>
		<path class="st2" d="M777.89,130.43l8.23-10.4c9.1,7.59,18.64,11.49,31.65,11.49c13.87,0,20.59-7.15,20.59-16.26
			c0-10.84-11.71-15.39-23.63-19.72c-15.82-5.63-30.99-13.22-30.99-30.56c0-16.91,13.44-29.91,36.41-29.91
			c13.22,0,24.49,4.99,32.73,11.92l-8.23,10.4c-7.37-5.42-14.95-8.45-24.28-8.45c-13.44,0-19.29,7.37-19.29,15.17
			c0,9.54,9.1,13.44,22.32,17.99c16.47,5.85,32.3,13,32.3,32.08c0,17.12-13.66,31.43-38.58,31.43
			C801.73,145.6,787.64,139.97,777.89,130.43z"/>
		<g>
			<g>
				<path class="st3" d="M777.89,130.43l8.23-10.4c9.1,7.59,18.64,11.49,31.65,11.49c13.87,0,20.59-7.15,20.59-16.26
					c0-10.84-11.71-15.39-23.63-19.72c-15.82-5.63-30.99-13.22-30.99-30.56c0-16.91,13.44-29.91,36.41-29.91
					c13.22,0,24.49,4.99,32.73,11.92l-8.23,10.4c-7.37-5.42-14.95-8.45-24.28-8.45c-13.44,0-19.29,7.37-19.29,15.17
					c0,9.54,9.1,13.44,22.32,17.99c16.47,5.85,32.3,13,32.3,32.08c0,17.12-13.66,31.43-38.58,31.43c-14.05,0-27.01-4.7-36.59-12.77"
					/>
				<g>
					<path class="st2" d="M783.19,130.09c-1.56-1.37-3.94-1.22-5.31,0.34s-1.22,3.94,0.34,5.31c1.56,1.37,3.94,1.22,5.31-0.34
						C784.9,133.84,784.75,131.46,783.19,130.09z"/>
				</g>
			</g>
		</g>
	</g>
</g>
</svg>
